<?xml version="1.0" encoding="UTF-8"?>
<svg width="93px" height="60px" viewBox="0 0 93 60" version="1.1" xmlns="http://www.w3.org/2000/svg" xmlns:xlink="http://www.w3.org/1999/xlink">
    <title>create-course-illustration-01</title>
    <g id="create-course-illustration-01" stroke="none" stroke-width="1" fill="none" fill-rule="evenodd">
        <g id="Laptop-Course-Icon">
            <path d="M80.1939889,0.000196416657 C82.6405655,-0.0208654167 84.7771604,1.65380021 85.3014881,4.11914569 C85.3728097,4.45430662 85.4005564,4.80455977 85.4008425,5.14788378 C85.4063727,12.0763465 85.4049425,19.0047143 85.4049425,25.9331771 C85.4049425,32.6032688 85.4187682,39.2734554 85.3882563,45.9434523 C85.3842516,46.8265837 85.5410065,47.5667664 86.0831645,48.2878702 C87.5240884,50.2046756 88.9069444,52.1648593 90.3097284,54.1101405 C91.117912,55.2309506 91.9372515,56.344262 92.7164489,57.4847204 C93.0731519,58.0070627 93.0943195,58.5955639 92.7742308,59.1660304 C92.4647258,59.7177977 91.9986567,59.997146 91.3531396,59.997051 L72.0092228,59.9951408 L72.0092228,59.9951408 L17.6325103,59.9951526 C12.3173396,59.9951526 7.00216878,59.9910711 1.686998,59.9999968 C0.97492683,60.0011326 0.462327122,59.7016614 0.168745555,59.083925 C-0.129126745,58.4570763 -0.0223351395,57.8713277 0.407787123,57.2978238 C1.31923441,56.0829485 2.18777435,54.8361802 3.07214234,53.6013717 C4.47654731,51.6402389 5.8875314,49.6838521 7.27286643,47.7096203 C7.44697489,47.4615955 7.56902244,47.117702 7.56978524,46.8178511 C7.58647143,40.3800276 7.58246674,33.9420141 7.58246674,27.5041906 C7.58246674,20.0322185 7.57026199,12.5602464 7.58952262,5.08836922 C7.59572034,2.67219207 9.35120271,0.536692022 11.7789955,0.101106205 C12.1175821,0.0403576932 12.466085,0.00675617242 12.8100112,0.00656633332 L26.8454317,0.00272209153 L26.8454317,0.00272209153 L76.0971006,0.0025797122 C77.4627936,0.0025797122 78.8284866,0.0123564259 80.1939889,0.000196416657 Z M83.9075716,48.0237997 C76.0962424,48.0387064 68.2847225,48.0340553 60.4732026,48.0347198 L24.8239715,48.0383267 L24.8239715,48.0383267 C19.5639128,48.0385166 14.3038541,48.0369979 9.04379545,48.0324417 C8.75107203,48.032157 8.48342557,48.0358588 8.29615886,48.3198581 C8.03776131,48.711686 7.75876824,49.0900353 7.48492405,49.4716119 C6.33453055,51.0744235 5.18242075,52.6758112 4.03164585,54.278243 C3.13421496,55.5280488 2.23268404,56.7751018 1.3487928,58.0343995 C1.254492,58.1688056 1.17926113,58.4342956 1.24829427,58.5369985 C1.35174864,58.6907682 1.58678552,58.763002 1.77462433,58.8509924 C1.83974814,58.8815565 1.9312838,58.8560231 2.01071006,58.8560231 L36.0490088,58.8560231 C36.3990374,57.8363024 36.7372426,56.8489492 37.0767827,55.8620707 C37.2676727,55.3069811 37.4844978,55.1542556 38.0857727,55.1541607 C43.7272299,55.153781 49.3686872,55.153781 55.0101445,55.1540657 C55.6317288,55.1541607 55.8471237,55.3174223 56.0421137,55.9010826 C56.3676374,56.8760013 56.7011705,57.8482623 57.0363245,58.8363748 C57.1495045,58.8430191 57.2588706,58.8551688 57.368332,58.8551688 C68.6192091,58.8560231 79.8699908,58.8577317 91.1207725,58.8433039 C91.3339743,58.8430191 91.614493,58.7007347 91.7354917,58.5332017 C91.81139,58.4280309 91.6973518,58.1162201 91.5837904,57.9569451 C89.3384015,54.8073246 87.0755637,51.6697589 84.8321772,48.5187146 C84.5896077,48.1780483 84.3468475,48.0228548 83.9075716,48.0237997 Z M54.500882,56.2843677 C52.6583454,56.3031618 50.8154274,56.2930054 48.9726048,56.2930054 C45.5253336,56.2930054 42.0780624,56.2894934 38.6307912,56.302972 C38.4489595,56.3036364 38.1541384,56.4041562 38.1048426,56.5319179 C37.8162192,57.2801687 37.5849963,58.0504409 37.3243104,58.8440633 L55.7773278,58.8440633 C55.5275117,58.0948632 55.2832259,57.4232125 55.0840405,56.7385578 C54.9906932,56.4176348 54.8610176,56.2806659 54.500882,56.2843677 Z M9.80564867,52.4964132 L46.5619845,52.4961285 C58.8140329,52.4961285 71.0659859,52.4954641 83.3179389,52.5008745 C83.5482083,52.5009694 83.819192,52.5118851 83.9960656,52.6294905 C84.1418553,52.7265932 84.2462631,52.9923679 84.2389417,53.1779356 C84.2321514,53.3331291 84.0672918,53.5397689 83.9174022,53.616369 C83.7345216,53.7098648 83.493859,53.7173634 83.2780828,53.7174583 L72.026872,53.7204483 L72.026872,53.7204483 L60.7756612,53.7203059 C43.9033503,53.7204009 27.0310393,53.7212551 10.1587284,53.7185025 C9.86228636,53.7184075 9.56517686,53.6841416 9.26978365,53.6528181 C8.90707359,53.6142808 8.75003272,53.3513536 8.84271258,53.0552996 C8.90955268,52.8418255 9.13810578,52.6530305 9.338054,52.5163464 C9.44713399,52.4418345 9.64689151,52.4964132 9.80564867,52.4964132 Z M30.1046829,49.8214854 C40.3689772,49.8221498 50.6331761,49.8316418 60.8974704,49.8348691 C68.045166,49.8370522 75.1928617,49.8350589 82.3405574,49.8352487 C82.8617385,49.8352487 83.0216399,49.9672818 83.0242362,50.394135 C83.0266934,50.805991 82.8184498,50.9765614 82.2949802,50.9766563 L69.0179231,50.9772614 L69.0179231,50.9772614 L10.8324214,50.977036 L10.8324214,50.977036 C10.265663,50.977036 10.0349169,50.7830204 10.0617102,50.3407903 C10.0808754,50.0232844 10.2473559,49.8506257 10.563154,49.8410388 C10.9123244,49.8305028 11.2621622,49.838476 11.6118094,49.8380963 C17.7760688,49.8322113 23.9403282,49.8210108 30.1046829,49.8214854 Z M75.3631943,1.14170924 L40.9447365,1.14180416 L40.9447365,1.14180416 C31.5553706,1.14180416 22.1659094,1.13022397 12.7766388,1.15556749 C11.5320399,1.15888967 10.4602145,1.68369987 9.65727508,2.68424685 C8.90401286,3.62309612 8.76146514,4.70679263 8.76194189,5.86405179 C8.76508843,13.1362182 8.74048822,20.4082897 8.73559222,27.6804562 C8.73419514,29.8087423 8.77948622,31.9370285 8.78177462,34.0653146 C8.78606535,38.0642753 8.77462339,42.063141 8.76985591,46.0621017 L8.76985591,46.8954953 L8.76985591,46.8954953 L9.30343254,46.8954953 C34.0976783,46.8954953 58.891924,46.8942614 83.6861697,46.9050825 C84.1404155,46.9050825 84.2718073,46.7919381 84.2706705,46.3310088 C84.2555978,39.9365634 84.260556,33.5421181 84.260556,27.1475778 C84.260556,20.234492 84.262463,13.3213113 84.2568374,6.40822557 C84.2563606,5.8573125 84.2228929,5.30459596 84.1707367,4.75586604 C83.9675466,2.61467082 82.2021478,1.2032171 80.1968494,1.150252 C78.5867752,1.10772804 76.974508,1.14170924 75.3631943,1.14170924 Z M79.7414976,4.27408951 C80.902761,4.27472833 81.6694675,5.02791496 81.6699442,6.17359393 C81.672614,14.0509674 81.6743303,21.9283409 81.6753792,29.8058093 C81.6759513,34.0357092 81.6654628,38.2657041 81.6806386,42.4955091 C81.684056,43.4856149 81.1083348,44.4806566 79.8325565,44.4767649 C77.8940982,44.47069 75.9555445,44.4927113 74.0171815,44.4847381 C72.175503,44.4772394 70.3340153,44.4325323 68.4924322,44.4307289 C66.9801867,44.4294 65.467846,44.4840737 63.9555052,44.4847381 C54.0544931,44.4903477 44.1535763,44.4873958 34.2525642,44.4876806 C32.336227,44.4877755 30.4198898,44.4903477 28.5035526,44.4903477 C23.6788604,44.4903477 18.8543589,44.4887247 14.029762,44.4871111 C13.6968011,44.4870162 13.363268,44.4937554 13.0312605,44.4751512 C12.0283729,44.4188639 11.3229762,43.7255715 11.3183994,42.7024337 C11.3014272,38.9694376 11.3122017,35.2363466 11.3124878,31.5032556 L11.3122017,29.4629599 L11.3122017,29.4629599 C11.3138227,21.6962626 11.3152529,13.9296602 11.3174459,6.16296294 C11.317732,5.05620099 12.1059875,4.27463341 13.2219598,4.27408951 L79.7414976,4.27408951 L79.7414976,4.27408951 Z M13.3944473,5.49890559 C12.5805427,5.49890559 12.5417354,5.53592439 12.5417354,6.35906673 L12.5417354,42.3631912 C12.5417354,43.2166129 12.6121035,43.2883721 13.4507036,43.2883721 L79.6737993,43.2883721 L79.6737993,43.2883721 C80.3072071,43.2883721 80.44567,43.1494099 80.44567,42.5146828 L80.44567,6.3161631 L80.44567,6.3161631 C80.44567,5.57246842 80.375096,5.49966512 79.6409037,5.49966512 L36.2787443,5.49947529 C28.6506771,5.49947529 21.0226099,5.49947529 13.3944473,5.49890559 Z" id="Course-Icon" fill="#6E7376"></path>
            <path d="M46.5167417,38.5216958 L46.5167417,38.5247051 C46.883157,38.5247051 47.2496351,38.5204153 47.6159248,38.5259217 C48.0407705,38.5321964 48.3419699,38.8254434 48.351834,39.2320194 C48.3620122,39.6519132 48.0601217,39.9849854 47.6291188,39.9912602 C46.8754919,40.002337 46.1214882,40.0040017 45.367987,39.9897235 C44.9351621,39.9815279 44.6315123,39.6418609 44.6449576,39.2275375 C44.6580888,38.8232664 44.9616128,38.5298274 45.3861444,38.5229764 C45.7629264,38.5168297 46.1398341,38.5216958 46.5167417,38.5216958 Z M46.5334352,36.3897327 L46.5334352,36.3997851 C47.4433163,36.3997851 48.3531345,36.3963916 49.2629528,36.4011297 C49.7269406,36.4036267 50.0436587,36.7066699 50.0436587,37.1302774 C50.0436587,37.5314111 49.72826,37.8646754 49.289592,37.8666602 C47.428049,37.8749838 45.5663803,37.8742155 43.7048372,37.8622423 C43.2657923,37.8593611 42.9551058,37.5247522 42.9545396,37.122466 C42.9539749,36.7076944 43.2765359,36.3959434 43.7411521,36.3920377 C44.6718922,36.3841623 45.6026951,36.3897327 46.5334352,36.3897327 Z M49.2287427,34.2560152 C49.7093173,34.2569756 50.0428733,34.5692389 50.0441332,34.9949592 C50.0453236,35.4281067 49.7230767,35.7235307 49.2317585,35.7256436 C48.3218774,35.7294852 47.4119335,35.726732 46.5019896,35.726732 L46.5019896,35.7299334 C45.5711238,35.7299334 44.6402581,35.7344794 43.7094551,35.7277565 C43.3272699,35.7250033 43.0859459,35.5322798 42.9876195,35.1870424 C42.9057541,34.8993018 43.0076617,34.560339 43.2682112,34.4050077 C43.4137846,34.3181221 43.6005735,34.2635065 43.7691421,34.262482 C45.5889671,34.2519815 47.4089177,34.2526218 49.2287427,34.2560152 Z M56.1134802,18.5498866 C56.7466022,22.1497173 55.680781,25.2564705 53.0484589,27.756625 C51.90272,28.8448402 51.1053646,30.1015764 50.7757667,31.673393 C50.5366418,32.8141109 49.5352826,33.5919837 48.3826325,33.5985145 C47.7544112,33.6020361 47.1261271,33.5991548 46.4978429,33.5991548 L46.4978429,33.6007555 C45.8591293,33.6007555 45.22029,33.6081187 44.581702,33.5991548 C43.430497,33.5828918 42.4366771,32.7577665 42.2047146,31.6071243 C41.9031382,30.1119489 41.1823079,28.8739728 40.0623286,27.8687376 C38.2479696,26.2401284 37.1604726,24.2015497 36.8063717,21.7690725 C36.1796583,17.4648728 38.4531672,13.1659234 42.3097009,11.3239738 C48.1494762,8.53479811 54.9745268,12.0736104 56.1134802,18.5498866 Z M55.9281176,28.7902822 C56.8175794,29.6761698 57.6944756,30.5753751 58.5638952,31.4816876 C58.6700752,31.5924555 58.7014266,31.7778158 58.7674592,31.928537 C58.72838,32.2578316 58.5802934,32.478087 58.314592,32.6072949 C58.0460006,32.7379755 57.7667911,32.7142212 57.5558133,32.503442 C56.6676708,31.6162098 55.7860625,30.7219346 54.9170199,29.815302 C54.6467321,29.533388 54.6909005,29.0743092 54.9652093,28.805969 C55.2357485,28.5414064 55.6484683,28.5118256 55.9281176,28.7902822 Z M37.8137688,28.6652169 C38.099638,28.7923119 38.2465309,29.0204427 38.2986156,29.3709304 C38.2063835,29.5413722 38.1455028,29.7430596 38.016893,29.8772617 C37.1916418,30.7384345 36.3544532,31.5877623 35.51494,32.434593 C35.1931956,32.7590855 34.7740673,32.7653602 34.479779,32.4710888 C34.1853022,32.1765612 34.190517,31.7154336 34.5074863,31.3894044 C35.3314182,30.5418054 36.1613815,29.7003531 36.9883291,28.8557634 C37.2248152,28.6142508 37.4966738,28.5242278 37.8137688,28.6652169 Z M45.2394526,11.9449787 C41.4582502,12.5193714 38.4894821,15.7030859 38.1886596,19.5829739 C37.9729697,22.363826 38.8554576,24.7624966 40.897004,26.6405578 C42.2804229,27.9132368 43.21443,29.4175042 43.6216838,31.2683536 C43.7483459,31.8440269 44.1161434,32.1255568 44.7016414,32.1281179 L45.5966007,32.1293264 L45.5966007,32.1293264 L47.3708437,32.128374 C47.6743678,32.128374 47.9779547,32.1302308 48.2814787,32.1281819 C48.9010926,32.1239561 49.2699582,31.8390327 49.3998245,31.2294247 C49.7864077,29.4157114 50.7164567,27.9456349 52.0455918,26.694277 C54.295226,24.576432 55.2095679,21.9488623 54.69871,18.8686166 C53.9421931,14.3066413 49.7469515,11.2603302 45.2394526,11.9449787 Z M49.9124227,13.7684755 C51.4593839,14.6203643 52.5799914,15.8700574 53.255711,17.5276712 C53.6001992,18.372517 53.7663804,19.2567398 53.8091037,20.317167 C53.8229888,20.8087719 53.4178083,21.2015179 52.8901125,21.0550225 C52.556368,20.9623744 52.3775583,20.7156756 52.3653696,20.3188957 C52.3328245,19.257124 52.0859716,18.2563067 51.5554485,17.3352038 C50.99615,16.3639673 50.2258108,15.6175321 49.2541694,15.0829646 C48.8903929,14.882878 48.7284841,14.554928 48.8144962,14.2211515 C48.9422891,13.7253848 49.4442882,13.5106358 49.9124227,13.7684755 Z M35.4601159,8.06503951 C36.3407817,8.94535668 37.2108296,9.83694273 38.0734637,10.7356999 C38.1807118,10.8474283 38.2184089,11.0284346 38.2883369,11.1773631 C38.2559174,11.5071699 38.1170038,11.7345324 37.8523705,11.8688625 C37.574292,12.0100437 37.2907474,11.9874419 37.067141,11.7627686 C36.1886742,10.8800824 35.3146681,9.9925301 34.4511544,9.09466933 C34.1762801,8.80878555 34.2044272,8.35617357 34.4732072,8.08495213 C34.754113,7.80156543 35.1692203,7.77428962 35.4601159,8.06503951 Z M58.5228117,8.08495853 C58.8034662,8.36488774 58.8034662,8.83286637 58.5027694,9.14276056 C57.664764,10.0063025 56.8209784,10.8642099 55.9757478,11.7205167 C55.7473037,11.952041 55.4719896,12.021383 55.1715441,11.8824428 C54.8882508,11.7515061 54.7444366,11.5187654 54.7017761,11.1730156 C54.7873484,11.009809 54.8418206,10.8154848 54.9636449,10.6883258 C55.7964355,9.81946957 56.6402211,8.96137002 57.4873994,8.10711213 C57.8060023,7.78588504 58.2237484,7.78652531 58.5228117,8.08495853 Z" id="Combined-Shape" fill="#6E7376"></path>
            <path d="M29,23.8333333 L29,22 M29,17.8333333 L29,16" id="Combined-Shape" stroke="#6E7376" stroke-width="1.5" stroke-linecap="round" transform="translate(29.000000, 20.000000) rotate(-90.000000) translate(-29.000000, -20.000000) "></path>
            <path d="M64,23.8333333 L64,22 M64,17.8333333 L64,16" id="Combined-Shape" stroke="#6E7376" stroke-width="1.5" stroke-linecap="round" transform="translate(64.000000, 20.000000) rotate(-90.000000) translate(-64.000000, -20.000000) "></path>
        </g>
    </g>
</svg>